<svg width="24" height="24" viewBox="0 0 24 24" fill="none" xmlns="http://www.w3.org/2000/svg">
<path d="M0.240061 21H23.7601C23.8921 21 24.0001 21.1227 24.0001 21.2727L24 23.7273C24 23.8773 23.892 24 23.76 24H0.24C0.108 24 0 23.8773 0 23.7273L6.04987e-05 21.2727C6.04987e-05 21.1227 0.108061 21 0.240061 21Z" fill="currentColor"/>
<path d="M0.240061 14H23.7601C23.8921 14 24.0001 14.1227 24.0001 14.2727L24 16.7273C24 16.8773 23.892 17 23.76 17H0.24C0.108 17 0 16.8773 0 16.7273L6.04987e-05 14.2727C6.04987e-05 14.1227 0.108061 14 0.240061 14Z" fill="currentColor"/>
<path d="M0.240061 7H23.7601C23.8921 7 24.0001 7.12273 24.0001 7.27273L24 9.72727C24 9.87727 23.892 10 23.76 10H0.24C0.108 10 0 9.87727 0 9.72727L6.04987e-05 7.27273C6.04987e-05 7.12273 0.108061 7 0.240061 7Z" fill="currentColor"/>
<path d="M0.240061 0H23.7601C23.8921 0 24.0001 0.122727 24.0001 0.272727L24 2.72727C24 2.87727 23.892 3 23.76 3H0.24C0.108 3 0 2.87727 0 2.72727L6.04987e-05 0.272727C6.04987e-05 0.122727 0.108061 0 0.240061 0Z" fill="currentColor"/>
</svg>
