<svg width="24" height="24" viewBox="0 0 24 24" fill="currentColor" xmlns="http://www.w3.org/2000/svg">
<path d="M10.24 10H23.76C23.892 10 24 9.87727 24 9.72727V7.27273C24 7.12273 23.892 7 23.76 7H10.24C10.108 7 10 7.12273 10 7.27273V9.72727C10 9.87727 10.108 10 10.24 10Z" fill="currentColor"/>
<path d="M5.50366 16.9265L0.116347 12.2615C0.080122 12.2305 0.0508092 12.1909 0.0306455 12.1455C0.0104818 12.1002 0 12.0504 0 12C0 11.9496 0.0104818 11.8998 0.0306455 11.8545C0.0508092 11.8091 0.080122 11.7695 0.116347 11.7385L5.50366 7.07347C5.70702 6.89915 6 7.05452 6 7.33495V16.665C6 16.9455 5.70358 17.1009 5.50366 16.9265Z" fill="currentColor"/>
<path d="M23.7601 17H10.24C10.108 17 10 16.8773 10 16.7273V14.2727C10 14.1227 10.108 14 10.24 14H23.7601C23.8921 14 24.0001 14.1227 24.0001 14.2727V16.7273C24.0001 16.8773 23.8921 17 23.7601 17Z" fill="currentColor"/>
<path d="M0.240061 0H23.7601C23.8921 0 24.0001 0.122727 24.0001 0.272727L24 2.72727C24 2.87727 23.892 3 23.76 3H0.24C0.108 3 0 2.87727 0 2.72727L6.04987e-05 0.272727C6.04987e-05 0.122727 0.108061 0 0.240061 0Z" fill="currentColor"/>
<path d="M0.240061 21H23.7601C23.8921 21 24.0001 21.1227 24.0001 21.2727L24 23.7273C24 23.8773 23.892 24 23.76 24H0.24C0.108 24 0 23.8773 0 23.7273L6.04987e-05 21.2727C6.04987e-05 21.1227 0.108061 21 0.240061 21Z" fill="currentColor"/>
</svg>
