
<svg height="24" viewBox="0 0 14 14" width="24" 
    xmlns="http://www.w3.org/2000/svg">
    <g fill="none" fill-rule="evenodd">
        <g transform="translate(-287 -23)">
            <path d="m294.707311 29.9998437 5.146258-5.1462587c.194991-.1954909.194991-.511476 0-.7069669-.195491-.1954908-.511976-.1954908-.706967 0l-5.146258 5.1462588-5.146759-5.1462588c-.195491-.1954908-.511476-.1954908-.706967 0-.195491.1949909-.195491.511476 0 .7069669l5.146759 5.1462587-5.146759 5.1467587c-.194991.1949909-.195491.511976 0 .7069669.195491.1954908.511976.1949909.706967 0l5.146759-5.1467587 5.146258 5.1462587c.194991.1949909.511476.1954909.706967 0 .195491-.1954908.194991-.511976 0-.7069668z" fill="currentColor" stroke="currentColor"/>
        </g>
    </g>
</svg>